<?xml version="1.0" encoding="UTF-8"?>
<svg xmlns="http://www.w3.org/2000/svg" xmlns:xlink="http://www.w3.org/1999/xlink" width="32px" height="32px" viewBox="0 0 32 32" version="1.1">
<defs>
<clipPath id="clip1">
  <path d="M 3.15625 3.871094 L 28.421875 3.871094 L 28.421875 27.871094 L 3.15625 27.871094 Z M 3.15625 3.871094 "/>
</clipPath>
</defs>
<g id="surface1">
<g clip-path="url(#clip1)" clip-rule="nonzero">
<path style=" stroke:none;fill-rule:nonzero;fill:rgb(100%,100%,100%);fill-opacity:1;" d="M 27.609375 3.882812 L 3.964844 3.882812 L 3.15625 26.070312 C 3.15625 26.964844 3.882812 27.691406 4.777344 27.691406 L 26.804688 27.691406 C 27.695312 27.691406 28.421875 26.964844 28.421875 26.070312 Z M 21.710938 8.828125 C 21.699219 8.828125 21.6875 8.832031 21.675781 8.835938 C 21.328125 12.171875 18.824219 14.761719 15.792969 14.761719 C 12.765625 14.761719 10.261719 12.171875 9.910156 8.835938 C 9.898438 8.832031 9.886719 8.828125 9.875 8.828125 C 9.503906 8.675781 9.242188 8.3125 9.242188 7.890625 C 9.242188 7.464844 9.503906 7.105469 9.875 6.957031 C 9.988281 6.90625 10.121094 6.878906 10.253906 6.878906 C 10.421875 6.878906 10.578125 6.921875 10.714844 6.992188 C 11.039062 7.160156 11.261719 7.5 11.261719 7.890625 C 11.261719 8.265625 11.058594 8.59375 10.75 8.765625 C 11.0625 11.671875 13.207031 13.921875 15.792969 13.921875 C 18.378906 13.921875 20.523438 11.671875 20.835938 8.769531 C 20.527344 8.601562 20.316406 8.269531 20.316406 7.890625 C 20.316406 7.5 20.539062 7.160156 20.867188 6.992188 C 21.003906 6.921875 21.160156 6.878906 21.328125 6.878906 C 21.460938 6.878906 21.589844 6.90625 21.710938 6.957031 C 22.078125 7.105469 22.335938 7.464844 22.335938 7.890625 C 22.335938 8.3125 22.078125 8.675781 21.710938 8.828125 Z M 21.710938 8.828125 "/>
</g>
</g>
</svg>
