<?xml version="1.0" encoding="UTF-8"?>
<svg xmlns="http://www.w3.org/2000/svg" xmlns:xlink="http://www.w3.org/1999/xlink" width="50px" height="50px" viewBox="0 0 13 13" version="1.1">
<defs>
<clipPath id="clip1">
  <path d="M 1.28125 1.570312 L 11.546875 1.570312 L 11.546875 11.320312 L 1.28125 11.320312 Z M 1.28125 1.570312 "/>
</clipPath>
</defs>
<g id="surface1">
<g clip-path="url(#clip1)" clip-rule="nonzero">
<path style=" stroke:none;fill-rule:nonzero;fill:rgb(0%,0%,0%);fill-opacity:1;" d="M 11.214844 1.578125 L 1.613281 1.578125 L 1.28125 10.65625 C 1.28125 11.023438 1.578125 11.316406 1.941406 11.316406 L 10.890625 11.316406 C 11.25 11.316406 11.546875 11.023438 11.546875 10.65625 Z M 8.820312 3.597656 C 8.816406 3.601562 8.808594 3.601562 8.804688 3.601562 C 8.664062 4.96875 7.648438 6.027344 6.417969 6.027344 C 5.1875 6.027344 4.167969 4.96875 4.027344 3.605469 C 4.023438 3.601562 4.015625 3.601562 4.011719 3.597656 C 3.859375 3.539062 3.753906 3.390625 3.753906 3.21875 C 3.753906 3.042969 3.859375 2.898438 4.011719 2.835938 C 4.058594 2.816406 4.109375 2.804688 4.164062 2.804688 C 4.234375 2.804688 4.296875 2.820312 4.351562 2.847656 C 4.484375 2.917969 4.574219 3.054688 4.574219 3.21875 C 4.574219 3.371094 4.492188 3.503906 4.367188 3.578125 C 4.496094 4.761719 5.363281 5.683594 6.417969 5.683594 C 7.46875 5.683594 8.335938 4.765625 8.464844 3.578125 C 8.339844 3.507812 8.253906 3.371094 8.253906 3.21875 C 8.253906 3.054688 8.34375 2.917969 8.476562 2.847656 C 8.53125 2.820312 8.597656 2.804688 8.664062 2.804688 C 8.71875 2.804688 8.769531 2.816406 8.820312 2.835938 C 8.96875 2.898438 9.074219 3.042969 9.074219 3.21875 C 9.074219 3.390625 8.96875 3.539062 8.820312 3.597656 Z M 8.820312 3.597656 "/>
</g>
</g>
</svg>
