<?xml version="1.0" encoding="UTF-8"?>
<svg xmlns="http://www.w3.org/2000/svg" xmlns:xlink="http://www.w3.org/1999/xlink" width="20px" height="16px" viewBox="0 0 20 16" version="1.1">
<defs>
<clipPath id="clip1">
  <path d="M 1.972656 2.726562 L 17.761719 2.726562 L 17.761719 13.148438 L 1.972656 13.148438 Z M 1.972656 2.726562 "/>
</clipPath>
</defs>
<g id="surface1">
<g clip-path="url(#clip1)" clip-rule="nonzero">
<path style=" stroke:none;fill-rule:nonzero;fill:rgb(54.901963%,32.156864%,100%);fill-opacity:1;" d="M 14.171875 2.726562 L 5.5625 2.726562 C 3.585938 2.726562 1.976562 4.011719 1.976562 5.597656 L 1.976562 10.1875 C 1.976562 11.773438 3.585938 13.058594 5.5625 13.058594 L 14.171875 13.058594 C 16.152344 13.058594 17.761719 11.773438 17.761719 10.1875 L 17.761719 5.597656 C 17.761719 4.011719 16.152344 2.726562 14.171875 2.726562 Z M 14.171875 3.875 C 14.546875 3.875 14.894531 3.949219 15.199219 4.082031 L 11.3125 6.746094 C 11.308594 6.746094 11.308594 6.75 11.304688 6.75 C 10.484375 7.316406 9.25 7.316406 8.429688 6.75 C 8.429688 6.75 8.425781 6.746094 8.425781 6.746094 L 4.539062 4.082031 C 4.839844 3.949219 5.191406 3.875 5.5625 3.875 Z M 16.328125 10.1875 C 16.328125 11.136719 15.359375 11.910156 14.171875 11.910156 L 5.5625 11.910156 C 4.378906 11.910156 3.410156 11.136719 3.410156 10.1875 L 3.410156 5.597656 C 3.410156 5.363281 3.46875 5.140625 3.574219 4.9375 L 7.496094 7.621094 C 8.171875 8.089844 9.019531 8.320312 9.867188 8.320312 C 10.714844 8.320312 11.566406 8.089844 12.242188 7.621094 L 16.160156 4.9375 C 16.265625 5.140625 16.328125 5.363281 16.328125 5.597656 Z M 16.328125 10.1875 "/>
</g>
</g>
</svg>
