<?xml version="1.0" encoding="UTF-8"?>
<svg xmlns="http://www.w3.org/2000/svg" xmlns:xlink="http://www.w3.org/1999/xlink" width="50px" height="50px" viewBox="0 0 13 13" version="1.1">
<defs>
<clipPath id="clip1">
  <path d="M 1.386719 2.078125 L 11.441406 2.078125 L 11.441406 10.90625 L 1.386719 10.90625 Z M 1.386719 2.078125 "/>
</clipPath>
</defs>
<g id="surface1">
<g clip-path="url(#clip1)" clip-rule="nonzero">
<path style=" stroke:none;fill-rule:nonzero;fill:rgb(0%,0%,0%);fill-opacity:1;" d="M 2.339844 6.914062 L 6.242188 10.816406 C 6.332031 10.90625 6.484375 10.90625 6.574219 10.816406 L 10.476562 6.914062 C 11.550781 5.839844 11.550781 4.105469 10.476562 3.03125 C 9.40625 1.960938 7.667969 1.960938 6.597656 3.03125 C 6.445312 3.179688 6.40625 3.246094 6.40625 3.246094 C 6.40625 3.246094 6.292969 3.101562 6.21875 3.03125 C 5.148438 1.960938 3.410156 1.960938 2.339844 3.03125 C 1.265625 4.105469 1.265625 5.839844 2.339844 6.914062 Z M 2.339844 6.914062 "/>
</g>
</g>
</svg>
