<?xml version="1.0" encoding="UTF-8"?>
<svg xmlns="http://www.w3.org/2000/svg" xmlns:xlink="http://www.w3.org/1999/xlink" width="25px" height="25px" viewBox="0 0 25 25" version="1.1">
<defs>
<clipPath id="clip1">
  <path d="M 2.464844 2.464844 L 22.203125 2.464844 L 22.203125 22.203125 L 2.464844 22.203125 Z M 2.464844 2.464844 "/>
</clipPath>
</defs>
<g id="surface1">
<g clip-path="url(#clip1)" clip-rule="nonzero">
<path style=" stroke:none;fill-rule:nonzero;fill:rgb(0%,0%,0%);fill-opacity:1;" d="M 2.464844 12.335938 C 2.464844 6.886719 6.886719 2.464844 12.335938 2.464844 C 17.785156 2.464844 22.203125 6.886719 22.203125 12.335938 C 22.203125 17.785156 17.785156 22.203125 12.335938 22.203125 C 6.886719 22.203125 2.464844 17.785156 2.464844 12.335938 Z M 2.464844 12.335938 "/>
</g>
<path style=" stroke:none;fill-rule:nonzero;fill:rgb(100%,100%,100%);fill-opacity:1;" d="M 17.347656 8.640625 C 15.964844 7.253906 13.71875 7.253906 12.335938 8.640625 C 10.949219 7.253906 8.707031 7.253906 7.324219 8.640625 C 5.941406 10.023438 6.136719 12.09375 7.324219 13.652344 C 8.574219 15.300781 10.867188 18.023438 12.335938 18.023438 C 13.800781 18.023438 16.09375 15.300781 17.347656 13.652344 C 18.535156 12.09375 18.730469 10.023438 17.347656 8.640625 Z M 17.347656 8.640625 "/>
</g>
</svg>
