<?xml version="1.0" encoding="UTF-8"?>
<svg xmlns="http://www.w3.org/2000/svg" xmlns:xlink="http://www.w3.org/1999/xlink" width="32px" height="32px" viewBox="0 0 32 32" version="1.1">
<defs>
<clipPath id="clip1">
  <path d="M 3.414062 5.121094 L 28 5.121094 L 28 26.84375 L 3.414062 26.84375 Z M 3.414062 5.121094 "/>
</clipPath>
</defs>
<g id="surface1">
<g clip-path="url(#clip1)" clip-rule="nonzero">
<path style=" stroke:none;fill-rule:nonzero;fill:rgb(65.098041%,65.098041%,65.098041%);fill-opacity:1;" d="M 5.757812 17.015625 L 15.367188 26.625 C 15.589844 26.847656 15.960938 26.847656 16.183594 26.625 L 25.789062 17.015625 C 28.429688 14.375 28.429688 10.101562 25.789062 7.464844 C 23.148438 4.824219 18.875 4.824219 16.238281 7.464844 C 15.867188 7.828125 15.769531 7.988281 15.769531 7.988281 C 15.769531 7.988281 15.488281 7.632812 15.308594 7.464844 C 12.671875 4.824219 8.398438 4.824219 5.757812 7.464844 C 3.117188 10.101562 3.117188 14.375 5.757812 17.015625 Z M 5.757812 17.015625 "/>
</g>
</g>
</svg>
