<?xml version="1.0" encoding="UTF-8"?>
<svg xmlns="http://www.w3.org/2000/svg" xmlns:xlink="http://www.w3.org/1999/xlink" width="50px" height="50px" viewBox="0 0 13 13" version="1.1">
<defs>
<clipPath id="clip1">
  <path d="M 1.28125 1.28125 L 11.546875 1.28125 L 11.546875 11.546875 L 1.28125 11.546875 Z M 1.28125 1.28125 "/>
</clipPath>
<clipPath id="clip2">
  <path d="M 6.414062 1.28125 C 3.582031 1.28125 1.28125 3.582031 1.28125 6.414062 C 1.28125 9.25 3.582031 11.546875 6.414062 11.546875 C 9.25 11.546875 11.546875 9.25 11.546875 6.414062 C 11.546875 3.582031 9.25 1.28125 6.414062 1.28125 Z M 6.414062 1.28125 "/>
</clipPath>
<clipPath id="clip3">
  <path d="M 2.449219 4.082031 L 9 4.082031 L 9 8.667969 L 2.449219 8.667969 Z M 2.449219 4.082031 "/>
</clipPath>
</defs>
<g id="surface1">
<g clip-path="url(#clip1)" clip-rule="nonzero">
<g clip-path="url(#clip2)" clip-rule="nonzero">
<path style=" stroke:none;fill-rule:nonzero;fill:rgb(54.901963%,32.156864%,100%);fill-opacity:1;" d="M 1.28125 1.28125 L 11.546875 1.28125 L 11.546875 11.546875 L 1.28125 11.546875 Z M 1.28125 1.28125 "/>
</g>
</g>
<g clip-path="url(#clip3)" clip-rule="nonzero">
<path style=" stroke:none;fill-rule:evenodd;fill:rgb(0%,0%,0%);fill-opacity:1;" d="M 5.355469 5.023438 C 5.445312 5.050781 5.523438 5.074219 5.632812 5.117188 C 6.175781 5.339844 6.632812 5.910156 6.921875 6.269531 C 7.0625 6.445312 7.160156 6.570312 7.214844 6.582031 C 7.277344 6.601562 7.324219 6.589844 7.417969 6.566406 C 7.421875 6.566406 7.433594 6.566406 7.441406 6.5625 C 7.679688 6.503906 8.078125 6.402344 8.386719 6.695312 C 8.558594 6.859375 8.675781 7.027344 8.769531 7.160156 L 8.773438 7.164062 C 8.796875 7.199219 8.832031 7.246094 8.832031 7.246094 C 8.832031 7.246094 8.554688 7.148438 8.386719 7.210938 C 8.347656 7.222656 8.257812 7.269531 8.140625 7.332031 C 8.0625 7.371094 7.976562 7.417969 7.875 7.472656 C 7.410156 7.730469 6.71875 8.109375 6.171875 8.167969 C 6.164062 8.171875 6.160156 8.171875 6.152344 8.171875 C 6.136719 8.175781 6.125 8.179688 6.109375 8.179688 C 6.089844 8.183594 6.070312 8.183594 6.046875 8.183594 C 5.960938 8.25 5.867188 8.296875 5.777344 8.292969 C 5.703125 8.300781 5.6875 8.25 5.691406 8.203125 C 5.160156 8.269531 4.609375 8.488281 4.457031 8.566406 C 4.203125 8.699219 3.871094 8.476562 3.949219 8.457031 C 4.03125 8.4375 4.578125 8.226562 4.507812 8.226562 C 4.433594 8.222656 4.25 8.089844 4.351562 8.078125 C 4.40625 8.070312 4.589844 8.039062 4.792969 7.96875 C 4.792969 7.96875 4.492188 7.867188 4.726562 7.832031 C 4.945312 7.804688 5.257812 7.589844 5.464844 7.449219 C 5.484375 7.4375 5.5 7.425781 5.515625 7.417969 C 5.542969 7.398438 5.566406 7.382812 5.589844 7.367188 C 5.746094 7.261719 5.832031 7.203125 5.832031 7.109375 C 5.832031 6.84375 4.453125 5.863281 4.136719 5.710938 C 3.820312 5.554688 2.449219 4.390625 2.53125 4.082031 C 3.082031 4.304688 3.664062 4.488281 4.3125 4.695312 C 4.59375 4.78125 4.882812 4.875 5.191406 4.972656 C 5.253906 4.996094 5.308594 5.011719 5.355469 5.023438 Z M 5.789062 8.191406 C 5.816406 8.195312 5.839844 8.191406 5.84375 8.1875 C 5.839844 8.1875 5.835938 8.1875 5.832031 8.1875 C 5.820312 8.1875 5.804688 8.191406 5.789062 8.191406 Z M 5.789062 8.191406 "/>
</g>
<path style=" stroke:none;fill-rule:nonzero;fill:rgb(0%,0%,0%);fill-opacity:1;" d="M 7.671875 6.476562 C 7.671875 6.476562 8.402344 5.769531 8.859375 5.695312 C 9.261719 5.628906 10.0625 5.476562 10.363281 5.324219 C 10.378906 5.316406 10.402344 5.339844 10.394531 5.351562 C 10.03125 5.917969 9.621094 6.085938 9.113281 6.296875 C 8.9375 6.371094 8.742188 6.453125 8.539062 6.554688 C 8.480469 6.585938 8.417969 6.617188 8.386719 6.628906 C 8.378906 6.625 8.363281 6.617188 8.351562 6.605469 C 8.335938 6.597656 8.324219 6.589844 8.308594 6.578125 C 8.265625 6.550781 8.222656 6.519531 8.167969 6.5 C 7.988281 6.4375 7.855469 6.433594 7.671875 6.476562 Z M 7.671875 6.476562 "/>
</g>
</svg>
