<svg xmlns="http://www.w3.org/2000/svg" xmlns:xlink="http://www.w3.org/1999/xlink" width="40" zoomAndPan="magnify" viewBox="0 0 30 30.000001" height="40" preserveAspectRatio="xMidYMid meet" version="1.0"><defs><clipPath id="7890db565c"><path d="M 0.484375 5.96875 L 24 5.96875 L 24 23 L 0.484375 23 Z M 0.484375 5.96875 " clip-rule="nonzero"/></clipPath><clipPath id="7dca4d8ceb"><path d="M 19 10 L 29.515625 10 L 29.515625 16 L 19 16 Z M 19 10 " clip-rule="nonzero"/></clipPath></defs><g clip-path="url(#7890db565c)"><path fill="#321d71" d="M 11.09375 9.464844 C 11.417969 9.5625 11.710938 9.648438 12.101562 9.808594 C 14.09375 10.625 15.757812 12.738281 16.808594 14.078125 C 17.316406 14.71875 17.679688 15.179688 17.871094 15.234375 C 18.105469 15.300781 18.28125 15.257812 18.613281 15.175781 C 18.640625 15.167969 18.667969 15.164062 18.695312 15.15625 C 19.570312 14.933594 21.019531 14.566406 22.148438 15.648438 C 22.78125 16.253906 23.207031 16.867188 23.550781 17.371094 L 23.5625 17.386719 C 23.644531 17.503906 23.773438 17.6875 23.773438 17.6875 C 23.773438 17.6875 22.761719 17.320312 22.148438 17.550781 C 22.007812 17.601562 21.691406 17.769531 21.25 18 C 20.976562 18.144531 20.648438 18.328125 20.289062 18.527344 C 18.585938 19.476562 16.070312 20.878906 14.066406 21.101562 C 14.042969 21.109375 14.023438 21.117188 14 21.117188 C 13.945312 21.128906 13.890625 21.136719 13.84375 21.144531 C 13.773438 21.15625 13.695312 21.160156 13.613281 21.160156 C 13.300781 21.40625 12.957031 21.578125 12.621094 21.566406 C 12.359375 21.589844 12.304688 21.394531 12.3125 21.226562 C 10.375 21.480469 8.363281 22.285156 7.804688 22.578125 C 6.882812 23.0625 5.667969 22.238281 5.960938 22.164062 C 6.257812 22.089844 8.261719 21.316406 7.992188 21.3125 C 7.726562 21.304688 7.054688 20.800781 7.429688 20.757812 C 7.628906 20.734375 8.292969 20.621094 9.027344 20.359375 C 9.027344 20.359375 7.941406 19.980469 8.796875 19.863281 C 9.589844 19.753906 10.738281 18.960938 11.496094 18.4375 L 11.5 18.4375 C 11.558594 18.394531 11.617188 18.351562 11.675781 18.316406 C 11.769531 18.25 11.855469 18.191406 11.941406 18.132812 C 12.519531 17.742188 12.832031 17.53125 12.832031 17.183594 C 12.832031 16.203125 7.792969 12.566406 6.640625 11.996094 C 5.488281 11.425781 0.484375 7.109375 0.773438 5.96875 C 2.789062 6.796875 4.921875 7.480469 7.285156 8.238281 C 8.304688 8.5625 9.371094 8.90625 10.488281 9.277344 C 10.71875 9.351562 10.910156 9.410156 11.09375 9.464844 Z M 12.671875 21.183594 C 12.773438 21.195312 12.855469 21.1875 12.867188 21.167969 C 12.855469 21.167969 12.84375 21.171875 12.832031 21.171875 C 12.78125 21.175781 12.726562 21.179688 12.671875 21.183594 Z M 12.671875 21.183594 " fill-opacity="1" fill-rule="evenodd"/></g><g clip-path="url(#7dca4d8ceb)"><path fill="#321d71" d="M 19.542969 14.839844 C 19.542969 14.839844 22.207031 12.21875 23.878906 11.945312 C 25.351562 11.707031 28.265625 11.140625 29.371094 10.574219 C 29.429688 10.542969 29.519531 10.625 29.484375 10.675781 C 28.164062 12.761719 26.65625 13.398438 24.8125 14.175781 C 24.15625 14.449219 23.460938 14.746094 22.710938 15.128906 C 22.496094 15.238281 22.261719 15.359375 22.15625 15.40625 C 22.121094 15.386719 22.078125 15.355469 22.023438 15.324219 C 21.972656 15.289062 21.921875 15.253906 21.871094 15.214844 C 21.71875 15.109375 21.558594 14.996094 21.363281 14.925781 C 20.699219 14.691406 20.21875 14.675781 19.542969 14.839844 Z M 19.542969 14.839844 " fill-opacity="1" fill-rule="nonzero"/></g></svg>