<svg xmlns="http://www.w3.org/2000/svg" xmlns:xlink="http://www.w3.org/1999/xlink" width="500" zoomAndPan="magnify" viewBox="0 0 375 374.999991" height="500" preserveAspectRatio="xMidYMid meet" version="1.0"><defs><clipPath id="17ee745b3a"><path d="M 71 117.828125 L 260 117.828125 L 260 255 L 71 255 Z M 71 117.828125 " clip-rule="nonzero"/></clipPath></defs><g clip-path="url(#17ee745b3a)"><path fill="#5e17eb" d="M 155.660156 146.339844 C 158.292969 147.125 160.671875 147.835938 163.855469 149.136719 C 180.097656 155.78125 193.667969 173.023438 202.25 183.925781 C 206.363281 189.148438 209.328125 192.917969 210.894531 193.367188 C 212.800781 193.914062 214.253906 193.566406 216.941406 192.890625 C 217.164062 192.832031 217.390625 192.777344 217.625 192.71875 C 224.738281 190.917969 236.558594 187.925781 245.765625 196.734375 C 250.925781 201.675781 254.382812 206.683594 257.203125 210.765625 L 257.304688 210.914062 C 257.957031 211.855469 259.015625 213.359375 259.015625 213.359375 C 259.015625 213.359375 250.777344 210.375 245.765625 212.234375 C 244.605469 212.664062 242.035156 214.019531 238.457031 215.902344 C 236.207031 217.085938 233.554688 218.566406 230.601562 220.210938 L 230.597656 220.214844 C 216.71875 227.953125 196.21875 239.386719 179.871094 241.179688 C 179.707031 241.253906 179.535156 241.304688 179.351562 241.328125 C 178.882812 241.398438 178.457031 241.464844 178.054688 241.527344 C 177.480469 241.621094 176.855469 241.660156 176.1875 241.675781 C 173.636719 243.667969 170.828125 245.074219 168.101562 244.980469 C 165.976562 245.167969 165.515625 243.582031 165.585938 242.199219 C 149.789062 244.265625 133.402344 250.847656 128.851562 253.230469 C 121.324219 257.164062 111.414062 250.457031 113.828125 249.859375 C 116.238281 249.261719 132.558594 242.945312 130.375 242.902344 C 128.195312 242.855469 122.71875 238.753906 125.78125 238.382812 C 127.40625 238.1875 132.808594 237.277344 138.816406 235.132812 C 138.816406 235.132812 129.949219 232.050781 136.933594 231.097656 C 143.386719 230.210938 152.753906 223.742188 158.941406 219.46875 L 158.949219 219.460938 C 159.449219 219.117188 159.929688 218.785156 160.382812 218.476562 C 161.148438 217.949219 161.871094 217.460938 162.550781 217 L 162.554688 217 C 167.265625 213.816406 169.835938 212.078125 169.835938 209.265625 C 169.835938 201.246094 128.746094 171.613281 119.34375 166.964844 C 109.945312 162.316406 69.175781 127.140625 71.527344 117.84375 C 87.960938 124.59375 105.332031 130.152344 124.59375 136.316406 C 132.925781 138.984375 141.609375 141.765625 150.726562 144.804688 C 152.582031 145.421875 154.164062 145.894531 155.660156 146.339844 Z M 168.519531 241.867188 C 169.332031 241.941406 170.019531 241.902344 170.101562 241.734375 C 170.015625 241.742188 169.925781 241.75 169.835938 241.753906 C 169.398438 241.789062 168.957031 241.824219 168.519531 241.867188 Z M 168.519531 241.867188 " fill-opacity="1" fill-rule="evenodd"/></g><path fill="#5e17eb" d="M 224.527344 190.160156 C 224.527344 190.160156 246.226562 168.789062 259.867188 166.558594 C 271.882812 164.59375 295.644531 159.992188 304.644531 155.367188 C 305.109375 155.125 305.84375 155.785156 305.570312 156.21875 C 294.792969 173.207031 282.503906 178.390625 267.492188 184.71875 C 262.144531 186.972656 256.453125 189.371094 250.363281 192.503906 C 248.601562 193.40625 246.675781 194.378906 245.835938 194.777344 C 245.542969 194.597656 245.175781 194.355469 244.753906 194.078125 C 244.332031 193.804688 243.917969 193.507812 243.496094 193.207031 C 242.257812 192.328125 240.96875 191.414062 239.355469 190.84375 C 233.957031 188.929688 230.042969 188.796875 224.527344 190.160156 Z M 224.527344 190.160156 " fill-opacity="1" fill-rule="nonzero"/></svg>