<?xml version="1.0" encoding="UTF-8"?>
<svg xmlns="http://www.w3.org/2000/svg" xmlns:xlink="http://www.w3.org/1999/xlink" width="25px" height="25px" viewBox="0 0 25 25" version="1.1">
<defs>
<clipPath id="clip1">
  <path d="M 0.308594 5.253906 L 20 5.253906 L 20 19.332031 L 0.308594 19.332031 Z M 0.308594 5.253906 "/>
</clipPath>
<clipPath id="clip2">
  <path d="M 16 9 L 24.484375 9 L 24.484375 13.332031 L 16 13.332031 Z M 16 9 "/>
</clipPath>
</defs>
<g id="surface1">
<g clip-path="url(#clip1)" clip-rule="nonzero">
<path style=" stroke:none;fill-rule:evenodd;fill:rgb(0%,0%,0%);fill-opacity:1;" d="M 9.144531 8.183594 C 9.410156 8.261719 9.652344 8.335938 9.980469 8.46875 C 11.640625 9.152344 13.027344 10.921875 13.902344 12.042969 C 14.324219 12.578125 14.625 12.964844 14.785156 13.011719 C 14.980469 13.066406 15.128906 13.03125 15.402344 12.960938 C 15.425781 12.957031 15.449219 12.949219 15.472656 12.941406 C 16.199219 12.757812 17.410156 12.453125 18.347656 13.355469 C 18.875 13.863281 19.230469 14.378906 19.515625 14.796875 L 19.527344 14.8125 C 19.59375 14.910156 19.699219 15.0625 19.699219 15.0625 C 19.699219 15.0625 18.859375 14.757812 18.347656 14.949219 C 18.230469 14.992188 17.964844 15.128906 17.601562 15.324219 C 17.371094 15.445312 17.101562 15.597656 16.800781 15.769531 C 15.378906 16.5625 13.285156 17.738281 11.617188 17.917969 C 11.597656 17.925781 11.582031 17.933594 11.5625 17.933594 C 11.515625 17.941406 11.472656 17.949219 11.429688 17.957031 C 11.371094 17.964844 11.308594 17.96875 11.238281 17.972656 C 10.980469 18.175781 10.691406 18.320312 10.414062 18.308594 C 10.199219 18.332031 10.148438 18.167969 10.15625 18.027344 C 8.542969 18.238281 6.871094 18.914062 6.402344 19.160156 C 5.636719 19.5625 4.621094 18.871094 4.871094 18.8125 C 5.113281 18.75 6.78125 18.101562 6.558594 18.097656 C 6.335938 18.09375 5.777344 17.671875 6.089844 17.632812 C 6.253906 17.613281 6.808594 17.519531 7.421875 17.300781 C 7.421875 17.300781 6.515625 16.984375 7.230469 16.886719 C 7.886719 16.792969 8.847656 16.128906 9.476562 15.691406 L 9.480469 15.691406 C 9.527344 15.652344 9.578125 15.621094 9.625 15.589844 C 9.703125 15.535156 9.777344 15.484375 9.847656 15.4375 C 10.328125 15.109375 10.589844 14.933594 10.589844 14.644531 C 10.589844 13.820312 6.394531 10.777344 5.433594 10.300781 C 4.472656 9.824219 0.308594 6.210938 0.546875 5.253906 C 2.226562 5.949219 4 6.519531 5.96875 7.152344 C 6.820312 7.425781 7.707031 7.710938 8.636719 8.023438 C 8.828125 8.085938 8.988281 8.136719 9.144531 8.183594 Z M 10.457031 17.992188 C 10.539062 17.996094 10.609375 17.996094 10.617188 17.976562 C 10.609375 17.980469 10.597656 17.980469 10.589844 17.980469 C 10.546875 17.980469 10.5 17.988281 10.457031 17.992188 Z M 10.457031 17.992188 "/>
</g>
<g clip-path="url(#clip2)" clip-rule="nonzero">
<path style=" stroke:none;fill-rule:nonzero;fill:rgb(0%,0%,0%);fill-opacity:1;" d="M 16.175781 12.683594 C 16.175781 12.683594 18.394531 10.488281 19.789062 10.257812 C 21.015625 10.054688 23.441406 9.582031 24.363281 9.109375 C 24.410156 9.082031 24.488281 9.152344 24.457031 9.195312 C 23.355469 10.941406 22.101562 11.472656 20.566406 12.121094 C 20.019531 12.355469 19.441406 12.601562 18.816406 12.921875 C 18.636719 13.015625 18.441406 13.113281 18.355469 13.15625 C 18.324219 13.136719 18.289062 13.113281 18.246094 13.082031 C 18.199219 13.054688 18.160156 13.027344 18.117188 12.996094 C 17.988281 12.902344 17.855469 12.808594 17.691406 12.753906 C 17.140625 12.554688 16.742188 12.542969 16.175781 12.683594 Z M 16.175781 12.683594 "/>
</g>
</g>
</svg>
