<?xml version="1.0" encoding="UTF-8"?>
<svg xmlns="http://www.w3.org/2000/svg" xmlns:xlink="http://www.w3.org/1999/xlink" width="18px" height="18px" viewBox="0 0 18 18" version="1.1">
<defs>
<clipPath id="clip1">
  <path d="M 10.078125 10.078125 L 15.984375 10.078125 L 15.984375 15.984375 L 10.078125 15.984375 Z M 10.078125 10.078125 "/>
</clipPath>
</defs>
<g id="surface1">
<path style=" stroke:none;fill-rule:nonzero;fill:rgb(54.901963%,32.156864%,100%);fill-opacity:1;" d="M 7.644531 13.125 C 7.421875 13.125 7.203125 13.109375 6.980469 13.082031 C 6.761719 13.054688 6.542969 13.015625 6.328125 12.960938 C 6.113281 12.90625 5.902344 12.84375 5.691406 12.761719 C 5.484375 12.679688 5.285156 12.589844 5.089844 12.484375 C 4.890625 12.378906 4.703125 12.265625 4.523438 12.136719 C 4.339844 12.007812 4.167969 11.867188 4.003906 11.71875 C 3.839844 11.570312 3.683594 11.414062 3.539062 11.246094 C 3.390625 11.074219 3.257812 10.898438 3.136719 10.714844 C 3.011719 10.53125 2.902344 10.339844 2.800781 10.140625 C 2.699219 9.941406 2.613281 9.738281 2.535156 9.527344 C 2.464844 9.320312 2.402344 9.105469 2.351562 8.890625 C 2.304688 8.671875 2.269531 8.453125 2.246094 8.234375 C 2.226562 8.011719 2.214844 7.789062 2.222656 7.570312 C 2.226562 7.347656 2.246094 7.125 2.28125 6.90625 C 2.3125 6.6875 2.359375 6.46875 2.417969 6.253906 C 2.476562 6.042969 2.546875 5.832031 2.632812 5.625 C 2.71875 5.421875 2.816406 5.222656 2.925781 5.027344 C 3.035156 4.835938 3.15625 4.648438 3.289062 4.472656 C 3.421875 4.292969 3.5625 4.125 3.714844 3.960938 C 3.871094 3.800781 4.03125 3.652344 4.203125 3.511719 C 4.375 3.371094 4.554688 3.238281 4.742188 3.121094 C 4.929688 3 5.125 2.894531 5.328125 2.800781 C 5.527344 2.703125 5.734375 2.625 5.945312 2.550781 C 6.15625 2.484375 6.371094 2.425781 6.585938 2.382812 C 6.804688 2.339844 7.027344 2.308594 7.246094 2.296875 C 7.46875 2.277344 7.6875 2.277344 7.910156 2.285156 C 8.132812 2.296875 8.351562 2.320312 8.574219 2.359375 C 8.792969 2.398438 9.007812 2.449219 9.21875 2.515625 C 9.429688 2.578125 9.640625 2.65625 9.84375 2.746094 C 10.046875 2.835938 10.242188 2.9375 10.433594 3.050781 C 10.625 3.167969 10.804688 3.292969 10.980469 3.429688 C 11.15625 3.566406 11.324219 3.714844 11.480469 3.871094 C 11.859375 4.25 12.175781 4.675781 12.425781 5.148438 C 12.679688 5.621094 12.859375 6.121094 12.964844 6.648438 C 13.070312 7.171875 13.09375 7.703125 13.042969 8.234375 C 12.988281 8.769531 12.859375 9.28125 12.65625 9.78125 C 12.449219 10.273438 12.179688 10.730469 11.835938 11.144531 C 11.496094 11.558594 11.105469 11.914062 10.65625 12.210938 C 10.214844 12.511719 9.734375 12.738281 9.21875 12.890625 C 8.707031 13.046875 8.179688 13.125 7.644531 13.125 Z M 7.644531 3.472656 C 7.484375 3.472656 7.320312 3.484375 7.160156 3.5 C 7 3.519531 6.84375 3.546875 6.683594 3.582031 C 6.527344 3.617188 6.371094 3.664062 6.21875 3.71875 C 6.066406 3.773438 5.917969 3.835938 5.773438 3.90625 C 5.625 3.980469 5.484375 4.058594 5.347656 4.144531 C 5.214844 4.230469 5.082031 4.328125 4.957031 4.429688 C 4.832031 4.53125 4.714844 4.640625 4.601562 4.757812 C 4.488281 4.875 4.382812 4.996094 4.285156 5.125 C 4.183594 5.25 4.09375 5.386719 4.011719 5.523438 C 3.929688 5.664062 3.851562 5.804688 3.785156 5.953125 C 3.71875 6.097656 3.660156 6.25 3.609375 6.40625 C 3.5625 6.558594 3.519531 6.714844 3.488281 6.875 C 3.457031 7.03125 3.433594 7.191406 3.421875 7.355469 C 3.40625 7.515625 3.402344 7.675781 3.40625 7.835938 C 3.414062 8 3.425781 8.160156 3.449219 8.320312 C 3.472656 8.480469 3.507812 8.636719 3.546875 8.796875 C 3.589844 8.953125 3.640625 9.105469 3.699219 9.253906 C 3.757812 9.40625 3.828125 9.554688 3.902344 9.695312 C 3.980469 9.839844 4.0625 9.976562 4.15625 10.109375 C 4.246094 10.242188 4.347656 10.367188 4.453125 10.492188 C 4.558594 10.613281 4.671875 10.730469 4.792969 10.835938 C 4.914062 10.945312 5.039062 11.046875 5.167969 11.140625 C 5.300781 11.234375 5.4375 11.324219 5.578125 11.402344 C 5.71875 11.480469 5.863281 11.550781 6.015625 11.613281 C 6.164062 11.671875 6.316406 11.726562 6.472656 11.769531 C 6.628906 11.816406 6.785156 11.851562 6.945312 11.878906 C 7.105469 11.90625 7.265625 11.921875 7.425781 11.929688 C 7.589844 11.9375 7.75 11.9375 7.910156 11.925781 C 8.070312 11.914062 8.234375 11.898438 8.390625 11.867188 C 8.550781 11.839844 8.707031 11.800781 8.863281 11.753906 C 9.015625 11.707031 9.167969 11.652344 9.316406 11.585938 C 9.46875 11.523438 9.609375 11.449219 9.75 11.367188 C 9.890625 11.289062 10.027344 11.199219 10.15625 11.105469 C 10.285156 11.007812 10.410156 10.902344 10.527344 10.792969 C 10.644531 10.683594 10.757812 10.566406 10.863281 10.441406 C 10.96875 10.316406 11.0625 10.1875 11.15625 10.054688 C 11.242188 9.921875 11.324219 9.78125 11.398438 9.636719 C 11.472656 9.492188 11.539062 9.34375 11.59375 9.191406 C 11.652344 9.042969 11.699219 8.886719 11.738281 8.730469 C 11.777344 8.574219 11.808594 8.414062 11.828125 8.253906 C 11.851562 8.09375 11.863281 7.933594 11.863281 7.773438 C 11.867188 7.609375 11.859375 7.449219 11.847656 7.289062 C 11.828125 7.125 11.804688 6.96875 11.769531 6.808594 C 11.734375 6.652344 11.691406 6.496094 11.640625 6.34375 C 11.589844 6.1875 11.527344 6.039062 11.457031 5.894531 C 11.390625 5.746094 11.3125 5.605469 11.226562 5.46875 C 11.140625 5.332031 11.046875 5.199219 10.945312 5.070312 C 10.847656 4.945312 10.738281 4.824219 10.625 4.710938 C 10.230469 4.316406 9.773438 4.011719 9.257812 3.796875 C 8.742188 3.582031 8.203125 3.472656 7.644531 3.472656 Z M 7.644531 3.472656 "/>
<g clip-path="url(#clip1)" clip-rule="nonzero">
<path style=" stroke:none;fill-rule:nonzero;fill:rgb(54.901963%,32.156864%,100%);fill-opacity:1;" d="M 15.332031 15.984375 C 15.167969 15.984375 15.027344 15.929688 14.910156 15.8125 L 10.636719 11.539062 C 10.582031 11.484375 10.539062 11.417969 10.507812 11.34375 C 10.476562 11.273438 10.460938 11.195312 10.460938 11.117188 C 10.460938 11.039062 10.476562 10.964844 10.507812 10.890625 C 10.539062 10.816406 10.582031 10.75 10.636719 10.695312 C 10.691406 10.640625 10.757812 10.597656 10.828125 10.566406 C 10.902344 10.535156 10.976562 10.519531 11.058594 10.519531 C 11.136719 10.519531 11.210938 10.535156 11.285156 10.566406 C 11.359375 10.597656 11.425781 10.640625 11.480469 10.695312 L 15.75 14.972656 C 15.835938 15.054688 15.890625 15.15625 15.914062 15.277344 C 15.9375 15.394531 15.925781 15.507812 15.878906 15.617188 C 15.835938 15.730469 15.761719 15.820312 15.660156 15.886719 C 15.5625 15.953125 15.453125 15.984375 15.332031 15.984375 Z M 15.332031 15.984375 "/>
</g>
</g>
</svg>
