<?xml version="1.0" encoding="UTF-8"?>
<svg xmlns="http://www.w3.org/2000/svg" xmlns:xlink="http://www.w3.org/1999/xlink" width="25px" height="25px" viewBox="0 0 25 25" version="1.1">
<defs>
<clipPath id="clip1">
  <path d="M 2.464844 2.464844 L 11.332031 2.464844 L 11.332031 11.332031 L 2.464844 11.332031 Z M 2.464844 2.464844 "/>
</clipPath>
<clipPath id="clip2">
  <path d="M 13.332031 2.464844 L 22.203125 2.464844 L 22.203125 11.332031 L 13.332031 11.332031 Z M 13.332031 2.464844 "/>
</clipPath>
<clipPath id="clip3">
  <path d="M 2.464844 13.332031 L 11.332031 13.332031 L 11.332031 22.203125 L 2.464844 22.203125 Z M 2.464844 13.332031 "/>
</clipPath>
<clipPath id="clip4">
  <path d="M 13.332031 13.332031 L 22.203125 13.332031 L 22.203125 22.203125 L 13.332031 22.203125 Z M 13.332031 13.332031 "/>
</clipPath>
</defs>
<g id="surface1">
<g clip-path="url(#clip1)" clip-rule="nonzero">
<path style=" stroke:none;fill-rule:nonzero;fill:rgb(0%,0%,0%);fill-opacity:1;" d="M 9.578125 2.464844 L 4.203125 2.464844 C 3.25 2.464844 2.464844 3.25 2.464844 4.203125 L 2.464844 9.578125 C 2.464844 10.53125 3.25 11.316406 4.203125 11.316406 L 9.578125 11.316406 C 10.53125 11.316406 11.316406 10.53125 11.316406 9.578125 L 11.316406 4.203125 C 11.316406 3.25 10.53125 2.464844 9.578125 2.464844 Z M 9.578125 2.464844 "/>
</g>
<g clip-path="url(#clip2)" clip-rule="nonzero">
<path style=" stroke:none;fill-rule:nonzero;fill:rgb(0%,0%,0%);fill-opacity:1;" d="M 20.46875 2.464844 L 15.089844 2.464844 C 14.136719 2.464844 13.355469 3.25 13.355469 4.203125 L 13.355469 9.578125 C 13.355469 10.53125 14.136719 11.316406 15.089844 11.316406 L 20.46875 11.316406 C 21.421875 11.316406 22.203125 10.53125 22.203125 9.578125 L 22.203125 4.203125 C 22.203125 3.25 21.421875 2.464844 20.46875 2.464844 Z M 20.46875 2.464844 "/>
</g>
<g clip-path="url(#clip3)" clip-rule="nonzero">
<path style=" stroke:none;fill-rule:nonzero;fill:rgb(0%,0%,0%);fill-opacity:1;" d="M 9.578125 13.355469 L 4.203125 13.355469 C 3.25 13.355469 2.464844 14.136719 2.464844 15.089844 L 2.464844 20.46875 C 2.464844 21.421875 3.25 22.203125 4.203125 22.203125 L 9.578125 22.203125 C 10.53125 22.203125 11.316406 21.421875 11.316406 20.46875 L 11.316406 15.089844 C 11.316406 14.136719 10.53125 13.355469 9.578125 13.355469 Z M 9.578125 13.355469 "/>
</g>
<g clip-path="url(#clip4)" clip-rule="nonzero">
<path style=" stroke:none;fill-rule:nonzero;fill:rgb(0%,0%,0%);fill-opacity:1;" d="M 20.46875 13.355469 L 15.089844 13.355469 C 14.136719 13.355469 13.355469 14.136719 13.355469 15.089844 L 13.355469 20.46875 C 13.355469 21.421875 14.136719 22.203125 15.089844 22.203125 L 20.46875 22.203125 C 21.421875 22.203125 22.203125 21.421875 22.203125 20.46875 L 22.203125 15.089844 C 22.203125 14.136719 21.421875 13.355469 20.46875 13.355469 Z M 20.46875 13.355469 "/>
</g>
</g>
</svg>
