<?xml version="1.0" encoding="UTF-8"?>
<svg xmlns="http://www.w3.org/2000/svg" xmlns:xlink="http://www.w3.org/1999/xlink" width="50px" height="50px" viewBox="0 0 13 13" version="1.1">
<defs>
<clipPath id="clip1">
  <path d="M 2.234375 4.300781 L 4.167969 4.300781 L 4.167969 8.527344 L 2.234375 8.527344 Z M 2.234375 4.300781 "/>
</clipPath>
<clipPath id="clip2">
  <path d="M 2.242188 7.75 L 2.242188 5.078125 C 2.242188 4.652344 2.585938 4.304688 3.011719 4.304688 L 3.398438 4.304688 C 3.824219 4.304688 4.167969 4.652344 4.167969 5.078125 L 4.167969 7.75 C 4.167969 8.175781 3.824219 8.519531 3.398438 8.519531 L 3.011719 8.519531 C 2.585938 8.519531 2.242188 8.175781 2.242188 7.75 Z M 2.242188 7.75 "/>
</clipPath>
<clipPath id="clip3">
  <path d="M 5.445312 4.300781 L 7.375 4.300781 L 7.375 8.527344 L 5.445312 8.527344 Z M 5.445312 4.300781 "/>
</clipPath>
<clipPath id="clip4">
  <path d="M 5.449219 7.75 L 5.449219 5.078125 C 5.449219 4.652344 5.796875 4.304688 6.222656 4.304688 L 6.605469 4.304688 C 7.03125 4.304688 7.375 4.652344 7.375 5.078125 L 7.375 7.75 C 7.375 8.175781 7.03125 8.519531 6.605469 8.519531 L 6.222656 8.519531 C 5.796875 8.519531 5.449219 8.175781 5.449219 7.75 Z M 5.449219 7.75 "/>
</clipPath>
<clipPath id="clip5">
  <path d="M 8.652344 4.300781 L 10.582031 4.300781 L 10.582031 8.527344 L 8.652344 8.527344 Z M 8.652344 4.300781 "/>
</clipPath>
<clipPath id="clip6">
  <path d="M 8.660156 7.75 L 8.660156 5.078125 C 8.660156 4.652344 9.003906 4.304688 9.425781 4.304688 L 9.8125 4.304688 C 10.238281 4.304688 10.582031 4.652344 10.582031 5.078125 L 10.582031 7.75 C 10.582031 8.175781 10.238281 8.519531 9.8125 8.519531 L 9.425781 8.519531 C 9.003906 8.519531 8.660156 8.175781 8.660156 7.75 Z M 8.660156 7.75 "/>
</clipPath>
</defs>
<g id="surface1">
<g clip-path="url(#clip1)" clip-rule="nonzero">
<g clip-path="url(#clip2)" clip-rule="nonzero">
<path style=" stroke:none;fill-rule:nonzero;fill:rgb(54.901963%,32.156864%,100%);fill-opacity:1;" d="M 2.242188 8.519531 L 2.242188 4.308594 L 4.167969 4.308594 L 4.167969 8.519531 Z M 2.242188 8.519531 "/>
</g>
</g>
<g clip-path="url(#clip3)" clip-rule="nonzero">
<g clip-path="url(#clip4)" clip-rule="nonzero">
<path style=" stroke:none;fill-rule:nonzero;fill:rgb(54.901963%,32.156864%,100%);fill-opacity:1;" d="M 5.449219 8.519531 L 5.449219 4.308594 L 7.375 4.308594 L 7.375 8.519531 Z M 5.449219 8.519531 "/>
</g>
</g>
<g clip-path="url(#clip5)" clip-rule="nonzero">
<g clip-path="url(#clip6)" clip-rule="nonzero">
<path style=" stroke:none;fill-rule:nonzero;fill:rgb(54.901963%,32.156864%,100%);fill-opacity:1;" d="M 8.660156 8.519531 L 8.660156 4.308594 L 10.582031 4.308594 L 10.582031 8.519531 Z M 8.660156 8.519531 "/>
</g>
</g>
</g>
</svg>
