<?xml version="1.0" encoding="UTF-8"?>
<svg xmlns="http://www.w3.org/2000/svg" xmlns:xlink="http://www.w3.org/1999/xlink" width="25px" height="25px" viewBox="0 0 25 25" version="1.1">
<defs>
<clipPath id="clip1">
  <path d="M 2.464844 2.464844 L 22.203125 2.464844 L 22.203125 22.203125 L 2.464844 22.203125 Z M 2.464844 2.464844 "/>
</clipPath>
</defs>
<g id="surface1">
<g clip-path="url(#clip1)" clip-rule="nonzero">
<path style=" stroke:none;fill-rule:nonzero;fill:rgb(100%,100%,100%);fill-opacity:1;" d="M 12.335938 2.464844 C 6.894531 2.464844 2.464844 6.894531 2.464844 12.335938 C 2.464844 17.777344 6.894531 22.203125 12.335938 22.203125 C 17.777344 22.203125 22.203125 17.777344 22.203125 12.335938 C 22.203125 6.894531 17.777344 2.464844 12.335938 2.464844 Z M 17.363281 17.363281 C 17.238281 17.492188 17.066406 17.558594 16.902344 17.558594 C 16.730469 17.558594 16.558594 17.492188 16.433594 17.363281 L 13.75 14.675781 C 12.964844 15.257812 12.039062 15.550781 11.105469 15.550781 C 9.964844 15.550781 8.828125 15.117188 7.964844 14.25 C 6.230469 12.519531 6.230469 9.699219 7.964844 7.964844 C 9.699219 6.230469 12.511719 6.230469 14.25 7.964844 C 15.828125 9.539062 15.964844 12.007812 14.675781 13.75 L 17.363281 16.433594 C 17.617188 16.691406 17.617188 17.105469 17.363281 17.363281 Z M 17.363281 17.363281 "/>
</g>
<path style=" stroke:none;fill-rule:nonzero;fill:rgb(100%,100%,100%);fill-opacity:1;" d="M 11.105469 7.980469 C 10.308594 7.980469 9.507812 8.285156 8.894531 8.894531 C 7.675781 10.113281 7.675781 12.097656 8.894531 13.324219 C 10.113281 14.539062 12.097656 14.539062 13.324219 13.324219 C 14.539062 12.097656 14.539062 10.113281 13.324219 8.894531 C 12.710938 8.285156 11.910156 7.980469 11.105469 7.980469 Z M 11.105469 7.980469 "/>
</g>
</svg>
