<?xml version="1.0" encoding="UTF-8"?>
<svg xmlns="http://www.w3.org/2000/svg" xmlns:xlink="http://www.w3.org/1999/xlink" width="25px" height="25px" viewBox="0 0 25 25" version="1.1">
<defs>
<clipPath id="clip1">
  <path d="M 2.464844 2.464844 L 22.203125 2.464844 L 22.203125 22.203125 L 2.464844 22.203125 Z M 2.464844 2.464844 "/>
</clipPath>
<clipPath id="clip2">
  <path d="M 2.464844 2.464844 L 22.203125 2.464844 L 22.203125 22.203125 L 2.464844 22.203125 Z M 2.464844 2.464844 "/>
</clipPath>
</defs>
<g id="surface1">
<g clip-path="url(#clip1)" clip-rule="nonzero">
<path style=" stroke:none;fill-rule:nonzero;fill:rgb(100%,100%,100%);fill-opacity:1;" d="M 22.203125 12.335938 C 22.203125 12.984375 22.140625 13.625 22.011719 14.261719 C 21.886719 14.894531 21.699219 15.511719 21.453125 16.113281 C 21.207031 16.710938 20.902344 17.277344 20.542969 17.816406 C 20.179688 18.355469 19.769531 18.855469 19.3125 19.3125 C 18.855469 19.769531 18.355469 20.179688 17.816406 20.542969 C 17.277344 20.902344 16.710938 21.207031 16.113281 21.453125 C 15.511719 21.699219 14.894531 21.886719 14.261719 22.011719 C 13.625 22.140625 12.984375 22.203125 12.335938 22.203125 C 11.6875 22.203125 11.046875 22.140625 10.410156 22.011719 C 9.777344 21.886719 9.160156 21.699219 8.558594 21.453125 C 7.960938 21.207031 7.390625 20.902344 6.855469 20.542969 C 6.316406 20.179688 5.816406 19.769531 5.355469 19.3125 C 4.898438 18.855469 4.488281 18.355469 4.128906 17.816406 C 3.769531 17.277344 3.464844 16.710938 3.21875 16.113281 C 2.972656 15.511719 2.785156 14.894531 2.65625 14.261719 C 2.53125 13.625 2.464844 12.984375 2.464844 12.335938 C 2.464844 11.6875 2.53125 11.046875 2.65625 10.410156 C 2.785156 9.777344 2.972656 9.160156 3.21875 8.558594 C 3.464844 7.960938 3.769531 7.390625 4.128906 6.855469 C 4.488281 6.316406 4.898438 5.816406 5.355469 5.355469 C 5.816406 4.898438 6.316406 4.488281 6.855469 4.128906 C 7.390625 3.769531 7.960938 3.464844 8.558594 3.21875 C 9.160156 2.972656 9.777344 2.785156 10.410156 2.65625 C 11.046875 2.53125 11.6875 2.464844 12.335938 2.464844 C 12.984375 2.464844 13.625 2.53125 14.261719 2.65625 C 14.894531 2.785156 15.511719 2.972656 16.113281 3.21875 C 16.710938 3.464844 17.277344 3.769531 17.816406 4.128906 C 18.355469 4.488281 18.855469 4.898438 19.3125 5.355469 C 19.769531 5.816406 20.179688 6.316406 20.542969 6.855469 C 20.902344 7.390625 21.207031 7.960938 21.453125 8.558594 C 21.699219 9.160156 21.886719 9.777344 22.015625 10.410156 C 22.140625 11.046875 22.203125 11.6875 22.203125 12.335938 Z M 22.203125 12.335938 "/>
</g>
<path style=" stroke:none;fill-rule:nonzero;fill:rgb(0%,0%,0%);fill-opacity:1;" d="M 13.65625 12.074219 C 13.417969 12.007812 13.179688 12.003906 12.941406 12.074219 C 12.703125 12.136719 12.503906 12.261719 12.335938 12.445312 C 12.167969 12.261719 11.964844 12.136719 11.730469 12.074219 C 11.488281 12.003906 11.253906 12.007812 11.015625 12.074219 C 9.695312 12.601562 9.832031 14.292969 11.917969 15.558594 C 12.046875 15.636719 12.183594 15.675781 12.335938 15.675781 C 12.484375 15.675781 12.625 15.636719 12.753906 15.558594 C 14.839844 14.292969 14.976562 12.601562 13.65625 12.074219 Z M 12.519531 15.183594 C 12.398438 15.261719 12.273438 15.261719 12.152344 15.183594 C 10.652344 14.261719 10.574219 13.457031 10.613281 13.152344 C 10.636719 12.957031 10.71875 12.796875 10.863281 12.664062 C 11.007812 12.535156 11.175781 12.464844 11.371094 12.464844 C 11.65625 12.472656 11.886719 12.589844 12.066406 12.804688 C 12.140625 12.878906 12.230469 12.914062 12.335938 12.914062 C 12.441406 12.914062 12.527344 12.878906 12.605469 12.804688 C 12.714844 12.667969 12.851562 12.566406 13.019531 12.511719 C 13.183594 12.457031 13.355469 12.453125 13.523438 12.5 C 14.464844 12.890625 14.222656 14.148438 12.519531 15.183594 Z M 12.519531 15.183594 "/>
<path style=" stroke:none;fill-rule:nonzero;fill:rgb(0%,0%,0%);fill-opacity:1;" d="M 10.496094 10.382812 L 10.496094 8.441406 C 10.613281 5.980469 14.089844 6.015625 14.175781 8.503906 L 14.175781 9.191406 L 10.9375 9.191406 L 10.9375 10.382812 C 10.9375 10.441406 10.914062 10.496094 10.871094 10.535156 C 10.832031 10.578125 10.777344 10.597656 10.71875 10.597656 C 10.660156 10.597656 10.605469 10.578125 10.5625 10.535156 C 10.519531 10.496094 10.496094 10.441406 10.496094 10.382812 Z M 10.496094 10.382812 "/>
<g clip-path="url(#clip2)" clip-rule="nonzero">
<path style=" stroke:none;fill-rule:nonzero;fill:rgb(0%,0%,0%);fill-opacity:1;" d="M 12.335938 2.464844 C 11.6875 2.464844 11.046875 2.53125 10.410156 2.65625 C 9.777344 2.785156 9.160156 2.972656 8.558594 3.21875 C 7.960938 3.464844 7.390625 3.769531 6.855469 4.128906 C 6.316406 4.488281 5.816406 4.898438 5.355469 5.355469 C 4.898438 5.816406 4.488281 6.316406 4.128906 6.855469 C 3.769531 7.390625 3.464844 7.960938 3.21875 8.558594 C 2.972656 9.160156 2.785156 9.777344 2.65625 10.410156 C 2.53125 11.046875 2.464844 11.6875 2.464844 12.335938 C 2.464844 12.984375 2.53125 13.625 2.65625 14.261719 C 2.785156 14.894531 2.972656 15.511719 3.21875 16.113281 C 3.464844 16.710938 3.769531 17.277344 4.128906 17.816406 C 4.488281 18.355469 4.898438 18.855469 5.355469 19.3125 C 5.816406 19.769531 6.316406 20.179688 6.855469 20.542969 C 7.390625 20.902344 7.960938 21.207031 8.558594 21.453125 C 9.160156 21.699219 9.777344 21.886719 10.410156 22.015625 C 11.046875 22.140625 11.6875 22.203125 12.335938 22.203125 C 12.984375 22.203125 13.625 22.140625 14.261719 22.015625 C 14.894531 21.886719 15.511719 21.699219 16.113281 21.453125 C 16.710938 21.207031 17.277344 20.902344 17.816406 20.542969 C 18.355469 20.179688 18.855469 19.769531 19.3125 19.3125 C 19.769531 18.855469 20.179688 18.355469 20.542969 17.816406 C 20.902344 17.277344 21.207031 16.710938 21.453125 16.113281 C 21.699219 15.511719 21.886719 14.894531 22.015625 14.261719 C 22.140625 13.625 22.203125 12.984375 22.203125 12.335938 C 22.203125 11.6875 22.140625 11.046875 22.011719 10.410156 C 21.886719 9.777344 21.699219 9.160156 21.453125 8.558594 C 21.207031 7.960938 20.902344 7.394531 20.542969 6.855469 C 20.179688 6.316406 19.769531 5.816406 19.3125 5.355469 C 18.855469 4.898438 18.355469 4.488281 17.816406 4.128906 C 17.277344 3.769531 16.710938 3.464844 16.113281 3.21875 C 15.511719 2.972656 14.894531 2.785156 14.261719 2.65625 C 13.625 2.53125 12.984375 2.464844 12.335938 2.464844 Z M 15.265625 18.511719 L 9.40625 18.511719 C 8.320312 18.511719 7.660156 17.410156 7.800781 16.355469 L 8.433594 10.660156 C 8.457031 10.457031 8.515625 10.269531 8.605469 10.089844 C 8.699219 9.914062 8.816406 9.757812 8.964844 9.621094 C 9.113281 9.488281 9.277344 9.382812 9.464844 9.308594 C 9.652344 9.234375 9.84375 9.195312 10.042969 9.191406 L 10.058594 9.191406 L 10.058594 8.441406 C 10.183594 5.417969 14.492188 5.425781 14.613281 8.441406 L 14.613281 9.191406 C 14.765625 9.1875 14.910156 9.207031 15.054688 9.253906 C 15.375 9.347656 15.644531 9.523438 15.855469 9.777344 C 16.070312 10.035156 16.199219 10.324219 16.238281 10.660156 L 16.871094 16.355469 C 17.011719 17.410156 16.351562 18.511719 15.265625 18.511719 Z M 15.265625 18.511719 "/>
</g>
</g>
</svg>
