<?xml version="1.0" encoding="UTF-8"?>
<svg xmlns="http://www.w3.org/2000/svg" xmlns:xlink="http://www.w3.org/1999/xlink" width="25px" height="25px" viewBox="0 0 25 25" version="1.1">
<defs>
<clipPath id="clip1">
  <path d="M 2.464844 2.464844 L 22.203125 2.464844 L 22.203125 22.203125 L 2.464844 22.203125 Z M 2.464844 2.464844 "/>
</clipPath>
<clipPath id="clip2">
  <path d="M 8 4.5625 L 16.667969 4.5625 L 16.667969 12.667969 L 8 12.667969 Z M 8 4.5625 "/>
</clipPath>
<clipPath id="clip3">
  <path d="M 5.253906 12 L 19.5625 12 L 19.5625 20.351562 L 5.253906 20.351562 Z M 5.253906 12 "/>
</clipPath>
</defs>
<g id="surface1">
<g clip-path="url(#clip1)" clip-rule="nonzero">
<path style=" stroke:none;fill-rule:nonzero;fill:rgb(0%,0%,0%);fill-opacity:1;" d="M 22.203125 12.335938 C 22.203125 12.984375 22.140625 13.625 22.011719 14.261719 C 21.886719 14.894531 21.699219 15.511719 21.453125 16.113281 C 21.207031 16.710938 20.902344 17.277344 20.542969 17.816406 C 20.179688 18.355469 19.769531 18.855469 19.3125 19.3125 C 18.855469 19.769531 18.355469 20.179688 17.816406 20.542969 C 17.277344 20.902344 16.710938 21.207031 16.113281 21.453125 C 15.511719 21.699219 14.894531 21.886719 14.261719 22.011719 C 13.625 22.140625 12.984375 22.203125 12.335938 22.203125 C 11.6875 22.203125 11.046875 22.140625 10.410156 22.011719 C 9.777344 21.886719 9.160156 21.699219 8.558594 21.453125 C 7.960938 21.207031 7.390625 20.902344 6.855469 20.542969 C 6.316406 20.179688 5.816406 19.769531 5.355469 19.3125 C 4.898438 18.855469 4.488281 18.355469 4.128906 17.816406 C 3.769531 17.277344 3.464844 16.710938 3.21875 16.113281 C 2.972656 15.511719 2.785156 14.894531 2.65625 14.261719 C 2.53125 13.625 2.464844 12.984375 2.464844 12.335938 C 2.464844 11.6875 2.53125 11.046875 2.65625 10.410156 C 2.785156 9.777344 2.972656 9.160156 3.21875 8.558594 C 3.464844 7.960938 3.769531 7.390625 4.128906 6.855469 C 4.488281 6.316406 4.898438 5.816406 5.355469 5.355469 C 5.816406 4.898438 6.316406 4.488281 6.855469 4.128906 C 7.390625 3.769531 7.960938 3.464844 8.558594 3.21875 C 9.160156 2.972656 9.777344 2.785156 10.410156 2.65625 C 11.046875 2.53125 11.6875 2.464844 12.335938 2.464844 C 12.984375 2.464844 13.625 2.53125 14.261719 2.65625 C 14.894531 2.785156 15.511719 2.972656 16.113281 3.21875 C 16.710938 3.464844 17.277344 3.769531 17.816406 4.128906 C 18.355469 4.488281 18.855469 4.898438 19.3125 5.355469 C 19.769531 5.816406 20.179688 6.316406 20.542969 6.855469 C 20.902344 7.390625 21.207031 7.960938 21.453125 8.558594 C 21.699219 9.160156 21.886719 9.777344 22.015625 10.410156 C 22.140625 11.046875 22.203125 11.6875 22.203125 12.335938 Z M 22.203125 12.335938 "/>
</g>
<g clip-path="url(#clip2)" clip-rule="nonzero">
<path style=" stroke:none;fill-rule:nonzero;fill:rgb(100%,100%,100%);fill-opacity:1;" d="M 12.332031 12.625 C 14.414062 12.625 16.105469 10.417969 16.105469 8.335938 C 16.105469 6.253906 14.414062 4.5625 12.332031 4.5625 C 10.253906 4.5625 8.558594 6.253906 8.558594 8.335938 C 8.558594 10.417969 10.253906 12.625 12.332031 12.625 Z M 12.332031 12.625 "/>
</g>
<g clip-path="url(#clip3)" clip-rule="nonzero">
<path style=" stroke:none;fill-rule:nonzero;fill:rgb(100%,100%,100%);fill-opacity:1;" d="M 15.167969 12.664062 C 14.433594 13.222656 13.519531 13.550781 12.53125 13.550781 L 12.136719 13.550781 C 11.144531 13.550781 10.230469 13.222656 9.5 12.664062 C 7.113281 13.050781 5.285156 15.121094 5.285156 17.621094 C 5.285156 18.992188 8.441406 20.105469 12.332031 20.105469 C 16.226562 20.105469 19.378906 18.992188 19.378906 17.621094 C 19.378906 15.121094 17.554688 13.050781 15.167969 12.664062 Z M 15.167969 12.664062 "/>
</g>
</g>
</svg>
