<?xml version="1.0" encoding="UTF-8"?>
<svg xmlns="http://www.w3.org/2000/svg" xmlns:xlink="http://www.w3.org/1999/xlink" width="50px" height="50px" viewBox="0 0 13 13" version="1.1">
<defs>
<clipPath id="clip1">
  <path d="M 1.28125 1.28125 L 11.546875 1.28125 L 11.546875 11.546875 L 1.28125 11.546875 Z M 1.28125 1.28125 "/>
</clipPath>
<clipPath id="clip2">
  <path d="M 2.425781 7 L 10.398438 7 L 10.398438 11.546875 L 2.425781 11.546875 Z M 2.425781 7 "/>
</clipPath>
</defs>
<g id="surface1">
<g clip-path="url(#clip1)" clip-rule="nonzero">
<path style=" stroke:none;fill-rule:nonzero;fill:rgb(70.19608%,70.19608%,70.19608%);fill-opacity:1;" d="M 11.546875 6.414062 C 11.546875 7.726562 11.054688 8.925781 10.242188 9.832031 C 9.304688 10.886719 7.9375 11.546875 6.414062 11.546875 C 4.894531 11.546875 3.527344 10.886719 2.585938 9.832031 C 1.773438 8.925781 1.28125 7.726562 1.28125 6.414062 C 1.28125 3.582031 3.582031 1.28125 6.414062 1.28125 C 9.25 1.28125 11.546875 3.582031 11.546875 6.414062 "/>
</g>
<path style=" stroke:none;fill-rule:nonzero;fill:rgb(94.901961%,94.901961%,94.901961%);fill-opacity:1;" d="M 6.414062 7.359375 C 7.34375 7.359375 8.191406 6.308594 8.191406 5.152344 C 8.191406 4.0625 7.980469 2.980469 6.414062 2.980469 C 4.847656 2.980469 4.636719 4.0625 4.636719 5.152344 C 4.636719 6.308594 5.484375 7.359375 6.414062 7.359375 "/>
<g clip-path="url(#clip2)" clip-rule="nonzero">
<path style=" stroke:none;fill-rule:nonzero;fill:rgb(94.901961%,94.901961%,94.901961%);fill-opacity:1;" d="M 10.242188 9.832031 C 9.304688 10.886719 7.9375 11.546875 6.414062 11.546875 C 4.894531 11.546875 3.527344 10.886719 2.585938 9.832031 C 2.570312 9.199219 2.992188 7.730469 5.144531 7.277344 C 5.515625 7.652344 5.964844 7.867188 6.414062 7.867188 C 6.863281 7.867188 7.316406 7.652344 7.683594 7.277344 C 9.835938 7.730469 10.257812 9.199219 10.242188 9.832031 "/>
</g>
</g>
</svg>
